<?xml version="1.0" encoding="utf-8"?>
<!-- Generator: Adobe Illustrator 21.1.0, SVG Export Plug-In . SVG Version: 6.00 Build 0)  -->
<svg version="1.1" id="Layer_1" xmlns="http://www.w3.org/2000/svg" xmlns:xlink="http://www.w3.org/1999/xlink" x="0px" y="0px"
	 viewBox="0 0 624.9 188" style="enable-background:new 0 0 624.9 188;" xml:space="preserve">
<g>
	<path d="M139.8,8.9l0.3-0.3c1.9-1.3,3.8-2.5,5.8-3.5c2-1,4.1-1.9,6.1-2.6c2.1-0.7,4.1-1.2,6.1-1.6c2-0.4,3.9-0.6,5.8-0.7
		c1.7,0,3.4,0.2,4.8,0.5c1.5,0.4,2.8,0.8,4,1.4c1.2,0.6,2.2,1.3,3,2c0.8,0.8,1.5,1.5,2,2.3c1.2,1.6,1.9,4,2.3,7.3v0.3
		c0,3.1-0.7,6-2.2,8.8c-1.4,2.8-3.4,5.4-5.9,8c-2.5,2.5-5.4,5-8.7,7.3c-3.3,2.3-6.9,4.5-10.6,6.7c-3,2-6.6,4-10.6,5.8h-0.3
		C134.6,54,129.4,57.9,126,62c-3.4,4.1-5.1,8.2-5.1,12.2c0,1,0.1,2,0.2,3.1c0.2,1,0.2,2,0.2,3c0,5.6-1.8,10.3-5.2,14.4
		c-2.1,2.6-4.6,5-7.3,7.2c-2.7,2.2-5.7,4.4-9,6.6c-1.4,0.8-2.8,1.8-4.2,2.8c-1.4,1-3,2-4.7,2.9c-0.7,0.3-1.4,0.7-2.1,1.1
		c-0.7,0.3-1.3,0.8-2,1.2h-0.3c-0.3,0.3-0.5,0.4-0.6,0.4c-0.1,0-0.2-0.1-0.3-0.4c-0.1-0.2-0.2-0.5-0.2-0.8c0-0.2,0.2-0.4,0.5-0.4
		l2.3-1.4c2.3-1.2,4.4-2.4,6.5-3.7c2-1.3,3.9-2.5,5.6-3.8c1.7-1.3,3.3-2.6,4.6-3.9c1.3-1.3,2.4-2.7,3.2-4.1c1.2-2.2,1.8-5.1,1.8-8.7
		c0-1.2-0.1-2.4-0.3-3.7s-0.3-2.7-0.3-4.1c0-2.2,0.4-4.4,1.2-6.5c0.8-2.1,2-4.2,3.4-6.2c1.4-2,3.2-4,5.2-5.8s4.2-3.6,6.6-5.3
		c2.3-1.7,4.8-3.2,7.4-4.7c2.6-1.5,5.3-2.8,8-4.1c1.8-1,3.6-2.1,5.3-3c1.7-1,3.5-1.9,5.3-2.8c6.2-3.9,10.7-8.1,13.6-12.5
		c2.8-4.4,4.2-9.2,4.2-14.3c0-1.7-0.1-3.1-0.4-4.2c-0.2-1.1-0.8-2.1-1.7-2.9c-0.8-1-1.7-1.7-2.7-2.4c-1-0.6-2.1-1.1-3.2-1.5
		c-1.1-0.4-2.2-0.6-3.2-0.8c-1-0.1-2-0.2-3-0.2c-2.9,0-5.8,0.5-8.6,1.6c-1.2,0.7-2.4,1.4-3.4,2c-1,0.7-1.9,1.2-2.7,1.8
		c-4.4,3.5-8.6,7.1-12.5,10.8c-3.9,3.7-7.6,7.6-11.1,11.7c-3.3,3.6-6.4,7.2-9.3,10.8c-2.8,3.6-5.5,7.3-8.1,11
		c-2.6,3.7-5,7.6-7.3,11.5c-2.3,3.9-4.6,7.9-7,11.9c-3.1,5.4-6.2,10.8-9.3,16c-3.1,5.2-6.2,10.5-9.5,15.9c0.6,0,1,0.1,1.1,0.3h0.3
		c0.7,0.1,1.2,0.4,1.8,0.9c0.5,0.5,1,1.1,1.4,1.8c0.4,0.8,0.7,1.6,1,2.6c0.2,1,0.4,2,0.4,3c0,0.3,0,0.5,0,0.9c0,0.3-0.1,0.6-0.1,0.8
		v0.3c-0.3,1.1-0.7,2-1.2,2.9c-0.5,0.9-1.2,1.7-2,2.4c-0.8,0.7-1.8,1.2-2.9,1.6c-1.1,0.4-2.3,0.6-3.7,0.6c-0.4,0-0.9-0.1-1.4-0.3
		h-0.3c-0.5-0.1-1-0.3-1.3-0.5c-0.3-0.2-0.6-0.4-0.8-0.8c-0.2-0.3-0.4-0.7-0.4-1.2c-0.1-0.5-0.1-1.1-0.1-1.8
		c0.1-0.7,0.4-1.5,0.8-2.4c0.4-0.9,0.9-2.1,1.5-3.4c0.5-1.1,1.1-2.2,1.8-3.3c0.7-1,1.3-2.2,1.9-3.3c-0.4,0-0.7,0-1,0
		c-0.3,0-0.6,0-0.8,0c-1.4,0-2.8,0.1-4.1,0.4c-1.3,0.3-2.6,0.7-3.9,1.4c-1.2,0.7-2.5,1.6-3.7,2.7c-1.2,1.1-2.5,2.5-3.8,4.1h-0.3
		c-0.1,0.1-0.2,0.1-0.4,0.1c0,0-0.1,0-0.1-0.1h-0.3c-0.2-0.2-0.3-0.5-0.3-0.9v-0.3c2.6-4.6,5.1-9.1,7.5-13.6
		c2.4-4.5,4.8-8.9,7.2-13.4c2.3-4.5,4.6-9,6.9-13.5c2.3-4.5,4.5-9.1,6.8-13.8l-15.6,7.7v4.3c-0.3,8.5-3.6,15.8-10,21.9
		c-2.3,2.3-4.9,4.4-7.8,6.3c-2.9,1.9-6,3.8-9.2,5.4c-0.7,0.5-1.4,0.9-2.1,1.3c-0.7,0.4-1.4,0.7-2.1,1h-0.3c-2.4,1.3-4.9,2.3-7.5,3.1
		s-5.1,1.1-7.5,1.1c-2.7,0-4.9-0.4-6.6-1.1c-1.7-0.7-2.8-1.7-3.3-3.1c-0.3-0.4-0.4-0.8-0.6-1.1c-0.1-0.4-0.2-0.8-0.2-1.3
		c0-1.8,0.5-3.6,1.5-5.5c1-1.9,2.6-3.9,4.6-5.8c2.1-2,4.6-4,7.7-6c3.1-2,6.7-3.9,10.9-5.8l23-11.5v-0.9C49,71.3,48.5,69,47.8,67
		c-0.7-2-1.6-3.7-2.8-5.2c-1.2-1.4-2.5-2.5-4.1-3.3c-1.6-0.8-3.5-1.1-5.7-1.1c-1.9,0-4.1,0.4-6.4,1.1c-2.3,0.8-4.9,1.8-7.8,3.2
		L1.1,75.3c-0.6,0-0.9-0.1-1-0.3C0,74.7,0,74.6,0,74.5c0-0.2,0.1-0.4,0.3-0.6h0.6v-0.3l19.2-12.9h0.3v-0.3c8.6-5,15.8-7.5,21.7-7.5
		c2.8,0,5.1,0.5,7.1,1.4c2,0.9,3.7,2.2,5,3.7c1.4,1.6,2.4,3.4,3.1,5.5c0.7,2.1,1.2,4.3,1.3,6.7l17.1-8.4c0-0.2,0-0.3,0.1-0.3
		l11.6-5.8h0.8v0.6h0.3v0.3h-0.3v0.3c-2.1,4.2-4.2,8.4-6.4,12.5c-2.2,4.2-4.4,8.4-6.7,12.7c-2.3,4.3-4.6,8.7-7,13.1
		c-2.4,4.4-4.8,9.1-7.3,14c0.4-0.1,0.9-0.1,1.4-0.1c0.5,0,1,0,1.5,0.1c0.5,0,1.1,0.1,1.7,0.1c5.1-8.8,10.1-17.4,15.2-26.1
		c5-8.6,10.2-17.5,15.6-26.6h0.3c2.9-4.5,6-8.8,9.3-13c3.3-4.1,6.7-8.2,10.3-12.3c3.6-3.9,7.3-7.8,11.2-11.6
		C131.2,15.9,135.4,12.3,139.8,8.9z M27,87.6c-1.5,0.8-3.2,1.8-5.1,3.1c-1.9,1.2-3.7,2.7-5.5,4.3s-3.3,3.5-4.6,5.5
		c-1.3,2-2.1,4.2-2.3,6.4c-0.1,0.1-0.2,0.4-0.2,0.7c0,0.8,0.3,1.5,0.9,2c0.6,0.5,1.3,1,2,1.3c0.8,0.3,1.5,0.6,2.3,0.7
		c0.7,0.2,1.3,0.2,1.6,0.2c1,0.2,2.1,0.3,3.1,0.3c2.7,0,5.2-0.6,7.6-1.8c3.9-1.5,7.3-3.6,10.1-6.1c2.8-2.6,5.2-5.3,7.1-8.3
		c1.9-3,3.3-6,4.2-9.2c0.9-3.2,1.4-6.1,1.4-8.9c0-0.3,0-0.5,0-0.8c0-0.3,0-0.5,0-0.8L27.2,87.6H27z"/>
	<path d="M158.7,114.3c-0.3,0.1-0.6,0.2-0.9,0.2c-0.4,0-0.6-0.2-0.6-0.5c0-0.1,0-0.3,0.1-0.4l2.9-10.4c-0.5,0.2-1.3,0.3-2.2,0.3
		c-0.9,1.4-1.9,2.5-3,3.6c-1.1,1-2.2,1.9-3.3,2.7c-1.1,0.7-2.3,1.4-3.5,1.9s-2.4,1-3.5,1.3c-1.3,0.3-2.7,0.5-4.2,0.7
		c-1.6,0.2-3.3,0.2-5.3,0.2c-2.1,0-3.8-0.6-5.2-1.7c-1.3-1.2-2-2.9-2-5.1c0-1.3,0.3-2.7,0.9-4.1l-8.9,3.4c-0.3,0-0.5,0-0.6-0.1
		c-0.1-0.1-0.1-0.2-0.1-0.4c0-0.4,0.1-0.5,0.3-0.6l21.5-8.7h0.6c0.2,0,0.3,0.1,0.4,0.2c0,0.1,0.1,0.2,0.3,0.2c0,0.4-0.1,0.6-0.3,0.6
		c-0.4,0.7-0.7,1.5-1.2,2.4c-0.4,0.8-0.8,1.7-1.2,2.5c-0.4,0.8-0.7,1.7-1,2.5c-0.3,0.9-0.5,1.7-0.5,2.5c0,1.5,0.3,2.7,0.8,3.5
		c0.5,0.9,1.2,1.3,2,1.3c1.4-0.1,2.9-0.4,4.3-0.8c1.4-0.4,2.7-1,4-1.7c1.3-0.7,2.5-1.6,3.7-2.6c1.2-1,2.3-2.2,3.2-3.4
		c-0.7-0.2-1.4-0.6-2-1c-0.6-0.5-1.1-1-1.5-1.6c-0.4-0.6-0.7-1.2-0.9-2s-0.3-1.5-0.3-2.2c0-2.2,0.6-3.8,1.9-4.8c1.2-1,3-1.5,5.2-1.5
		c1.1,0,2,0.3,2.6,1c0.6,0.6,1,1.6,1,3c0,0.4-0.1,1-0.3,1.6s-0.4,1.4-0.7,2.1c-0.3,0.7-0.6,1.5-1,2.2c-0.4,0.7-0.8,1.3-1.1,1.8
		c1-0.2,2-0.5,3.1-1c1-0.4,2-0.9,3-1.4c1-0.5,1.9-1.1,2.8-1.7c0.9-0.6,1.8-1.1,2.6-1.6c0.2-0.1,0.4-0.2,0.6-0.2
		c0.3,0,0.5,0.1,0.7,0.3v0.6l-3,11.5l18.4-6.9c0.1,0,0.2,0,0.2,0c0.1,0,0.2,0,0.3,0.1c0.1,0.1,0.2,0.2,0.2,0.4
		c0,0.3-0.1,0.5-0.4,0.7L158.7,114.3z"/>
	<path d="M217.9,115.9c-0.4,0-0.7-0.1-0.9-0.4c-0.2-0.3-0.2-0.4-0.2-0.3c0-0.1,0.1-0.2,0.3-0.2c0.7-1.3,1.2-2.5,1.8-3.7
		s1-2.3,1.4-3.4c0.4-1.1,0.9-2.3,1.4-3.4c0.5-1.2,1-2.4,1.5-3.8l-33.7,15.5c-0.1,0-0.2,0-0.4,0c-0.3,0-0.6-0.1-0.8-0.2v-0.6
		c0.7-1.3,1.3-2.5,1.9-3.8c0.6-1.2,1.1-2.5,1.6-3.7c0.5-1.2,1-2.5,1.5-3.8c0.5-1.3,1-2.6,1.5-4l-15,6c-0.1,0-0.2-0.1-0.4-0.2
		c-0.2-0.1-0.3-0.3-0.3-0.6c0-0.3,0.1-0.5,0.4-0.7l25.7-10c0.2-0.1,0.3-0.1,0.4-0.1c0.3,0,0.5,0.1,0.7,0.3c0,0.4-0.1,0.6-0.3,0.6
		c-0.8,1.3-1.5,2.5-2.1,3.7c-0.6,1.2-1.2,2.4-1.7,3.6c-0.5,1.2-1.1,2.4-1.6,3.6c-0.5,1.2-1.1,2.4-1.8,3.7l34.8-15.8V94h0.3
		c0.2,0,0.5,0.2,0.9,0.6v0.5c-0.9,1.3-1.7,2.5-2.3,3.7c-0.6,1.2-1.2,2.5-1.8,3.7c-0.6,1.3-1.1,2.6-1.7,3.9c-0.6,1.3-1.2,2.7-1.9,4.1
		l27.6-10.9c0.5,0,0.9,0.2,1.1,0.6c0,0.3-0.2,0.6-0.5,0.9L217.9,115.9z"/>
	<path d="M259.9,98.3c1.2-0.5,2.3-0.8,3.1-0.8c1,0,1.6,0.3,1.9,1c0.3,0.7,0.4,1.6,0.4,2.6c0,0.7,0,1.5-0.1,2.3
		c-0.1,0.8-0.1,1.5-0.1,2.2c0,1.3,0.1,2.1,0.3,2.6c0.2,0.5,0.5,0.7,1,0.7c0.3,0,0.6-0.2,1-0.5c10.1-5.5,18.7-12.7,25.9-21.5l0.9-1
		c-0.3,0-0.5-0.1-0.8-0.2c-0.2-0.1-0.5-0.2-0.9-0.4c-1.8-0.7-3.2-1.8-4.2-3.3c-1.1-1.5-1.6-3.4-1.6-5.6c0-1.7,0.3-3.6,0.9-5.6
		c0.6-2,1.5-4.2,2.6-6.4c1.2-2.2,2.5-4.6,4.2-7.1c1.6-2.5,3.5-5,5.6-7.5c1.7-2.4,4.4-4.5,7.9-6.2c0.5-0.2,0.9-0.3,1.2-0.4
		c0.3-0.1,0.5-0.1,0.6-0.2c0.2,0,0.3,0,0.3,0c0,0,0.1,0,0.2,0c1.7,0,3,0.5,4,1.6c1,1.1,1.5,2.9,1.5,5.4c-0.1,0.7-0.3,1.5-0.4,2.3
		c-0.2,0.8-0.3,1.7-0.6,2.5c-0.2,0.8-0.5,1.7-0.8,2.5c-0.3,0.8-0.6,1.6-1,2.2c-0.1,0.2-0.4,0.8-0.9,1.6c-0.5,0.9-1,1.9-1.8,3.2
		c-0.7,1.3-1.6,2.7-2.5,4.3c-0.9,1.6-1.9,3.2-3,4.9c-1.1,1.7-2.2,3.4-3.4,5.2c-1.2,1.8-2.5,3.6-3.7,5.2c0.2,0.1,0.4,0.3,0.7,0.4
		c0.3,0.1,0.6,0.2,0.9,0.3c0.3,0.1,0.6,0.2,0.8,0.3c0.2,0.1,0.4,0.3,0.4,0.6c0,0.4-0.2,0.7-0.5,0.9c-0.4,0.1-0.7,0.2-1.2,0.2
		c-0.8,0-1.7-0.1-2.8-0.4c-0.3,0.3-0.5,0.5-0.7,0.8c-0.2,0.3-0.4,0.6-0.8,0.8c-4,4.9-8.5,9.3-13.3,13.1c-4.8,3.8-10,7.2-15.5,10.2
		c-0.7,0.3-1.3,0.6-1.9,1c-0.6,0.3-1.2,0.6-1.8,0.9c-0.6,0.2-1.2,0.4-1.8,0.6c-0.6,0.2-1.3,0.2-2.1,0.2c-1.1,0-2-0.3-2.7-0.9
		c-0.7-0.6-1.1-1.5-1.1-2.7c0-0.1,0-0.3,0-0.4s0-0.3,0.1-0.5v-2.3c0-0.7,0-1.3,0.1-1.9c0-0.5,0.1-1.1,0.1-1.5c0-0.4-0.1-0.7-0.2-1
		c-0.1-0.3-0.4-0.4-0.9-0.4c-0.6,0-1.2,0.1-2,0.4c-0.8,0.3-1.7,0.6-2.9,1c-2.4,1-4.1,1.6-5.1,1.9c-1,0.3-1.6,0.4-1.7,0.4
		c-0.1,0-0.2-0.1-0.4-0.2c-0.2-0.1-0.2-0.3-0.2-0.4s0.1-0.4,0.4-0.7c3.1-1.1,6.1-2.3,9.1-3.3S256.6,99.4,259.9,98.3z M296.7,82.8
		c1.4-1.9,2.8-4,4.2-6.3c1.4-2.3,2.8-4.5,4-6.7c1.2-2.2,2.3-4.2,3.2-6.2s1.6-3.4,2-4.5c0.3-1.4,0.6-2.8,0.8-4.1
		c0.2-1.3,0.4-2.6,0.4-3.9c0-0.7,0-1.5-0.1-2.3c-0.1-0.8-0.2-1.5-0.4-2.1c-0.2-0.6-0.5-1.2-0.8-1.6c-0.3-0.4-0.7-0.7-1.1-0.7
		c-0.6,0-1.2,0.2-1.8,0.7c-0.6,0.4-1.1,1-1.7,1.6c-0.5,0.6-1.1,1.3-1.6,2.1c-0.5,0.8-1,1.5-1.4,2.2c-1.4,2.4-2.5,4.8-3.5,7.1
		c-1,2.3-1.8,4.6-2.4,6.7c-0.6,2.1-1.1,4-1.4,5.8c-0.3,1.8-0.5,3.4-0.5,4.8C294.7,78.7,295.4,81.1,296.7,82.8z"/>
	<path d="M321.8,96.9c0.3,0,0.5-0.1,0.5-0.1c0.2,0,0.5,0.1,0.7,0.3v0.7l-5.8,12.9l18.2-7.1h0.3c0.2,0,0.3,0.1,0.4,0.2
		c0.1,0.2,0.2,0.3,0.2,0.5c0,0.2-0.1,0.4-0.4,0.5l-20.1,8c-0.7,0.2-1.6,0.5-2.6,0.8c-1,0.3-2,0.5-3,0.5c-0.9,0-1.7-0.2-2.5-0.6
		c-0.7-0.4-1.1-1.1-1.1-1.9c0-0.8,0.3-1.8,1-3l3.5-7.2l-7.5,2l-6.6,11.1c0,0.4-0.2,0.7-0.7,0.7l-6.8-0.7c-0.4,0-0.7-0.2-0.7-0.5
		v-0.6l5.5-10l-7.4,2.8c-0.2,0.1-0.3,0.1-0.5,0.1c-0.3,0-0.4-0.2-0.4-0.5c0-0.3,0.1-0.5,0.3-0.8l19.5-7.8c0.1,0,0.3,0.1,0.6,0.2
		c0.2,0.2,0.4,0.4,0.4,0.6c0,0.2-0.1,0.4-0.2,0.6s-0.3,0.5-0.5,0.8c-0.2,0.3-0.4,0.6-0.6,0.9c-0.2,0.3-0.4,0.6-0.4,0.8l-0.1,0.1
		c0,0,0.1,0.1,0.2,0.1c0.3,0,0.9-0.1,2-0.4c1.1-0.2,2.4-0.6,4-1.1c1.6-0.5,3.3-0.9,5.1-1.4C318.3,97.8,320,97.3,321.8,96.9z"/>
	<path d="M351.7,110.1c1.7-0.5,3.5-1,5.3-1.3c1.8-0.4,3.7-0.6,5.7-0.6c1.4-1.2,2.8-2.3,4.4-3.4c1.6-1.1,3.3-2.1,5.2-3
		c2.8-1.2,5.6-2.1,8.5-2.7c2.9-0.6,5.8-1,8.8-1.1l0.9,0.7l-3,10.8c0,0.3-0.1,0.5-0.1,0.7c0,0.3,0.2,0.5,0.5,0.5c0.2,0,0.4,0,0.7-0.1
		l23.9-9.8c0.3,0,0.7,0.2,1.1,0.7c0,0.2-0.2,0.5-0.6,0.9c-5.8,2.3-11.6,4.6-17.3,6.8c-5.7,2.2-11.4,4.5-17.2,6.7h-0.3
		c-0.4,0-0.5-0.3-0.5-0.9c0.1-0.6,0.4-1.4,0.8-2.5c0.4-1.1,0.8-2.2,1.2-3.4c0.4-1.2,0.8-2.4,1.1-3.6c0.3-1.2,0.5-2.2,0.5-3.1
		c0-0.4,0-0.7-0.1-1.1c-0.1-0.4-0.2-0.5-0.5-0.5c-0.4,0-1.2,0.2-2.5,0.5c-1.3,0.3-2.7,0.8-4.3,1.5c-1.6,0.6-3.2,1.4-4.9,2.4
		c-1.7,0.9-3.1,2-4.3,3.3c1.4,0.3,2.2,1,2.6,2.2c0,1.7-0.2,3.1-0.6,4c-0.4,0.9-0.7,1.6-0.9,2c-0.6,1-1.5,1.8-2.6,2.4
		c-1.1,0.7-2.4,1-3.9,1c-1.4,0-2.2-0.7-2.2-2.1c0-1,0.3-2.1,0.8-3.2c0.5-1.1,1.2-2.2,2.1-3.5c0.3-0.3,0.5-0.5,0.7-0.8
		c0.2-0.3,0.3-0.5,0.5-0.6c-1.9,0.1-3.6,0.3-5.3,0.7c-1.6,0.3-3.2,0.8-4.8,1.4c-1.6,0.6-3.1,1.3-4.6,2.1c-1.5,0.8-3,1.7-4.7,2.6
		c-0.6,0-0.9-0.2-1.1-0.6v-0.5c0.7-1.3,1.4-2.6,1.9-3.7c0.5-1.2,1.1-2.4,1.6-3.6c0.5-1.2,1-2.4,1.5-3.7c0.5-1.3,1-2.6,1.5-3.9
		l-14.9,5.8c0,0-0.1,0.1-0.3,0.1c-0.2,0-0.3-0.1-0.4-0.2c-0.1-0.2-0.1-0.3-0.1-0.5c0-0.2,0.1-0.5,0.3-0.8l25.9-10.1
		c0.5,0,0.9,0.2,1.1,0.6c-0.7,1.3-1.4,2.5-2,3.7c-0.6,1.2-1.2,2.4-1.7,3.5c-0.6,1.2-1.1,2.4-1.7,3.6
		C353.1,107.5,352.4,108.7,351.7,110.1z"/>
	<path d="M421.8,101.2c0.1-0.4,0.3-0.8,0.6-1.2c0.3-0.4,0.6-0.7,1-1c0.4-0.3,0.8-0.5,1.2-0.7c0.5-0.2,0.8-0.3,1.1-0.3
		c0.7,0,1.3,0.2,1.9,0.5c0.5,0.3,1,0.8,1.3,1.3c0.3,0.6,0.6,1.2,0.8,1.9c0.2,0.7,0.3,1.4,0.3,2v1.1l8.1-13.5
		c-3.3,1.8-6.6,3.4-9.9,4.7c-3.3,1.4-6.6,2.6-9.9,3.9l-15.2,6c0,0-0.2,0.1-0.4,0.1c-0.2,0-0.3-0.1-0.5-0.2c-0.1-0.1-0.2-0.3-0.2-0.5
		c0-0.2,0.2-0.3,0.5-0.5l15.3-6c3.7-1.4,7.3-2.9,10.9-4.6c3.6-1.7,7.2-3.4,10.9-5.2l4.6-7.8c1.8-3.1,3.8-6.3,5.9-9.5
		c2.1-3.2,4.4-6.3,6.8-9.2c2.4-2.9,4.9-5.7,7.5-8.2c2.6-2.5,5.3-4.6,8-6.4c0.4-0.3,0.8-0.6,1.1-0.9h0.3c2.1-1.4,4.2-2.4,6.1-3
		c1.9-0.6,3.6-0.9,5.1-0.9c0.8,0,1.6,0.2,2.2,0.5c0.6,0.4,1.2,0.8,1.7,1.3c0.5,0.5,0.9,1.1,1.1,1.8c0.2,0.7,0.4,1.3,0.4,2
		c0,2.7-1.3,5.7-3.9,8.9c-0.8,0.9-1.7,1.9-2.7,2.9c-1,1-1.9,2-2.9,3c-0.9,1-1.8,1.8-2.6,2.6s-1.4,1.3-1.9,1.6
		c-0.2,0.1-0.4,0.3-0.7,0.5c-0.2,0.2-0.5,0.4-0.8,0.6c-1.9,1.5-3.8,3-5.8,4.4c-2,1.5-4,2.9-6.1,4.3c-2.1,1.4-4.2,2.7-6.3,3.9
		c-2.1,1.2-4.2,2.4-6.3,3.5L437,107.8c1.4-0.2,3-0.5,4.7-1s3.4-1.1,5.2-1.8s3.5-1.4,5.2-2.1c1.7-0.7,3.3-1.4,4.8-2
		c0.2,0,0.5,0.2,0.9,0.7c0,0.4-0.2,0.7-0.5,0.9c-1.6,0.7-3.2,1.4-4.9,2.2c-1.7,0.8-3.4,1.5-5.2,2.2c-1.8,0.7-3.5,1.3-5.3,1.8
		c-1.8,0.5-3.5,0.9-5.3,1h-0.5l-8.5,13.8c0,0.3-0.2,0.5-0.5,0.5l-6.4-0.5c-0.2,0.2-0.5,0.3-0.9,0.3c-0.3-0.3-0.5-0.5-0.5-0.7
		c0-0.1,0.1-0.3,0.2-0.4l8.3-14c-0.7-0.2-1.5-0.5-2.3-0.9c-0.8-0.4-1.5-0.8-2-1.3c-0.6-0.5-1-1.1-1.4-1.7c-0.4-0.6-0.5-1.3-0.5-2
		c0-0.2,0-0.4,0.1-0.6C421.7,101.6,421.7,101.4,421.8,101.2z M475.2,66.7h0.3c0.5-0.6,1.1-1.1,1.7-1.6c0.6-0.5,1.2-1,1.7-1.5
		c0.8-1,1.6-2.1,2.4-3.3c0.8-1.2,1.5-2.5,2.1-3.8c0.6-1.3,1.1-2.5,1.5-3.7c0.4-1.2,0.6-2.2,0.6-3c0-0.5,0-1-0.1-1.4
		c-0.1-0.5-0.3-0.9-0.5-1.2s-0.6-0.6-1-0.8c-0.5-0.2-1.1-0.3-1.9-0.3c-2.1,0-4.6,0.8-7.6,2.4c-0.1,0.2-0.3,0.3-0.6,0.5
		c-0.2,0.1-0.4,0.3-0.6,0.4c-1,0.8-2,1.9-3.1,3.3c-1.1,1.4-2.2,3-3.4,4.9c-1.2,1.8-2.4,3.9-3.7,6c-1.3,2.2-2.6,4.5-3.9,6.8
		c-1,2.1-2.1,4.1-3.3,6.1c-1.1,2-2.3,4-3.6,6l-0.3,0.6c1.4-0.8,2.8-1.6,4.1-2.4c1.4-0.8,2.8-1.6,4.2-2.6c2.4-1.5,4.8-3.1,7.1-4.8
		c2.3-1.7,4.5-3.4,6.7-5.2L475.2,66.7z"/>
	<path d="M482.5,96.9c0.3,0,0.5-0.1,0.5-0.1c0.2,0,0.5,0.1,0.7,0.3v0.7l-5.8,12.9l18.2-7.1h0.3c0.2,0,0.3,0.1,0.4,0.2
		c0.1,0.2,0.2,0.3,0.2,0.5c0,0.2-0.1,0.4-0.4,0.5l-20.1,8c-0.7,0.2-1.6,0.5-2.6,0.8c-1,0.3-2,0.5-3,0.5c-0.9,0-1.7-0.2-2.5-0.6
		c-0.7-0.4-1.1-1.1-1.1-1.9c0-0.8,0.3-1.8,1-3l3.5-7.2l-7.5,2l-6.6,11.1c0,0.4-0.2,0.7-0.7,0.7l-6.8-0.7c-0.4,0-0.7-0.2-0.7-0.5
		v-0.6l5.5-10l-7.4,2.8c-0.2,0.1-0.3,0.1-0.5,0.1c-0.3,0-0.4-0.2-0.4-0.5c0-0.3,0.1-0.5,0.3-0.8l19.5-7.8c0.1,0,0.3,0.1,0.6,0.2
		c0.2,0.2,0.4,0.4,0.4,0.6c0,0.2-0.1,0.4-0.2,0.6c-0.1,0.2-0.3,0.5-0.5,0.8c-0.2,0.3-0.4,0.6-0.6,0.9c-0.2,0.3-0.4,0.6-0.4,0.8
		l-0.1,0.1c0,0,0.1,0.1,0.2,0.1c0.3,0,0.9-0.1,2-0.4c1.1-0.2,2.4-0.6,4-1.1c1.6-0.5,3.3-0.9,5.1-1.4C479,97.8,480.8,97.3,482.5,96.9
		z"/>
	<path d="M527.9,103.3h0.9c0.7,0,1.4,0.1,2.1,0.4c0.6,0.3,1.2,0.6,1.7,1c0.5,0.4,0.9,1,1.1,1.6c0.2,0.7,0.4,1.3,0.4,2
		c0,1.4-0.5,2.6-1.5,3.7s-2.4,2.1-4.1,2.8c-0.6,0.3-1.1,0.6-1.6,0.9c-2,0.7-4.2,1.1-6.7,1.1c-3.6,0-5.9-1.2-6.9-3.7
		c-0.6-0.7-0.9-1.9-0.9-3.4l0.3-1.4c-3.9,1.4-7.3,3-10.2,4.9c-2.9,1.9-5.4,3.9-7.5,6.2c-2.1,2.2-3.8,4.6-5.2,7
		c-1.4,2.4-2.5,4.8-3.3,7.3c-0.8,2.4-1.4,4.8-1.7,7.2s-0.5,4.6-0.5,6.7c0,0.6,0,1.3,0,2c0,0.7,0.1,1.4,0.2,2.1
		c0.1,0.6,0.2,1.2,0.2,1.7c0.1,0.5,0.2,0.9,0.3,1c0.9,4.5,2.1,8.7,3.7,12.6s3.6,7.3,6.2,10.2c2.6,2.9,5.6,5.2,9.2,6.8
		c3.6,1.6,7.8,2.5,12.8,2.5c1.7,0,3.6-0.1,5.7-0.4c2.1-0.3,4.3-0.7,6.6-1.2c2.2-0.5,4.4-1.2,6.5-1.9c2.1-0.7,3.9-1.5,5.4-2.4v-0.3
		c3.1-1.7,5.5-3.7,7.1-6c1.6-2.3,2.4-5.1,2.4-8.2c0-0.7-0.1-1.6-0.2-2.7c-0.1-1-0.4-2.2-0.8-3.4c-0.4-1.2-0.9-2.4-1.4-3.6
		c-0.6-1.2-1.4-2.3-2.4-3.2c-1-1-2.2-1.7-3.5-2.3c-1.4-0.6-3-0.9-4.9-0.9c-1.8,0-3.4,0.3-4.9,1c-1.5,0.7-3.1,1.5-4.6,2.3l-0.3,0.1
		c-0.1,0-0.3-0.1-0.6-0.4s-0.4-0.4-0.4-0.5c0-0.2,0.2-0.3,0.7-0.3c0.8-0.6,1.7-1.1,2.9-1.6c1.1-0.5,2.3-1,3.6-1.5
		c1.3-0.5,2.6-0.9,3.9-1.1c1.3-0.3,2.6-0.4,3.8-0.4c1.4,0,2.8,0.2,4,0.5c1.2,0.3,2.4,0.8,3.3,1.4c1,0.6,1.9,1.3,2.7,2.1
		c0.8,0.8,1.4,1.6,1.8,2.4c0.4,0.3,0.7,0.8,1,1.4c0.3,0.7,0.5,1.4,0.7,2.2c0.2,0.8,0.4,1.7,0.5,2.5c0.1,0.9,0.2,1.6,0.2,2.3
		c0,2.6-0.5,5.1-1.6,7.5s-2.6,4.5-4.6,6.5s-4.4,3.8-7.3,5.3c-2.9,1.5-6.1,2.8-9.7,3.8c-0.3,0.1-0.7,0.3-1.2,0.5
		c-0.5,0.2-1.2,0.3-1.8,0.5c-0.7,0.1-1.4,0.3-2.1,0.4c-0.7,0.1-1.4,0.3-2,0.4h-0.3c-1.8,0.3-3.5,0.5-5.1,0.7
		c-1.7,0.1-3.3,0.2-4.9,0.2c-5.2,0-10-0.8-14.1-2.3c-4.2-1.5-7.8-3.7-10.9-6.5c-3.1-2.8-5.8-6.1-7.9-9.9c-2.1-3.9-3.7-8.1-4.8-12.6
		c0-0.4,0-0.8-0.1-1.2c-0.1-0.4-0.1-0.6-0.1-0.9c-0.1-0.6-0.2-1.1-0.2-1.7c0-0.6-0.1-1.2-0.1-1.8c0-2.4,0.3-4.9,0.9-7.6
		s1.5-5.4,2.8-8.2s2.8-5.5,4.7-8.3c1.9-2.7,4.2-5.4,6.9-7.9c2.7-2.5,5.8-4.9,9.2-7c3.5-2.1,7.4-4,11.7-5.5c0-1.7,0-3.1-0.1-4
		c-0.1-1-0.2-1.7-0.3-2.2c-0.1-0.5-0.3-0.8-0.6-0.9c-0.3-0.1-0.6-0.2-1-0.2c-0.4,0-0.8,0-1.2,0.1c-0.4,0.1-0.8,0.2-1.1,0.3
		c-0.4,0.1-0.7,0.3-1,0.4c-0.3,0.1-0.5,0.2-0.7,0.2l-14.6,5.7c-0.1,0.1-0.2,0.1-0.2,0.1c-0.2,0-0.4-0.1-0.7-0.4
		c0-0.6,0.2-0.9,0.6-0.9l14.3-5.7c0.6-0.3,1.2-0.5,1.8-0.7c0.7-0.2,1.3-0.4,2.1-0.6c0.7-0.2,1.4-0.4,2.1-0.5
		c0.7-0.2,1.3-0.2,1.9-0.2c0.8,0,1.6,0.1,2.4,0.4c0.7,0.3,1.4,0.7,2,1.3c0.6,0.6,1.1,1.3,1.5,2.2c0.4,0.9,0.7,2,0.9,3.3L527.9,103.3
		z M527,104.9l-6.4,1.1v1.8c0,0.5,0.1,1.1,0.2,1.7c0.1,0.6,0.3,1.2,0.5,1.8c0.2,0.6,0.4,1.1,0.7,1.6c0.3,0.5,0.6,0.9,1,1.1
		c0.4,0.1,1,0.2,1.7,0.2h1.7c0.4-0.3,0.8-0.5,1.2-0.5h0.3c1.4-0.7,2.5-1.6,3.4-2.6c0.9-1,1.4-1.9,1.4-2.9c0-0.4-0.1-0.7-0.2-1.1
		c-0.2-0.4-0.4-0.8-0.7-1.1c-0.3-0.4-0.8-0.7-1.4-0.9c-0.6-0.2-1.3-0.4-2.1-0.4c-0.2,0-0.4,0-0.6,0
		C527.4,104.9,527.2,104.9,527,104.9z"/>
	<path d="M556.2,101.2c0.1-0.4,0.3-0.8,0.6-1.2c0.3-0.4,0.6-0.7,1-1c0.4-0.3,0.8-0.5,1.2-0.7c0.5-0.2,0.8-0.3,1.1-0.3
		c0.7,0,1.3,0.2,1.9,0.5c0.5,0.3,1,0.8,1.3,1.3c0.3,0.6,0.6,1.2,0.8,1.9c0.2,0.7,0.3,1.4,0.3,2v1.1l8.1-13.5
		c-3.3,1.8-6.6,3.4-9.9,4.7c-3.3,1.4-6.6,2.6-9.9,3.9l-15.2,6c0,0-0.2,0.1-0.4,0.1c-0.2,0-0.3-0.1-0.5-0.2c-0.1-0.1-0.2-0.3-0.2-0.5
		c0-0.2,0.2-0.3,0.5-0.5l15.3-6c3.7-1.4,7.3-2.9,10.9-4.6c3.6-1.7,7.2-3.4,10.9-5.2l4.6-7.8c1.8-3.1,3.8-6.3,5.9-9.5
		c2.1-3.2,4.4-6.3,6.8-9.2c2.4-2.9,4.9-5.7,7.5-8.2c2.6-2.5,5.3-4.6,8-6.4c0.4-0.3,0.8-0.6,1.1-0.9h0.3c2.1-1.4,4.2-2.4,6.1-3
		c1.9-0.6,3.6-0.9,5.1-0.9c0.8,0,1.6,0.2,2.2,0.5c0.6,0.4,1.2,0.8,1.7,1.3c0.5,0.5,0.9,1.1,1.1,1.8c0.2,0.7,0.4,1.3,0.4,2
		c0,2.7-1.3,5.7-3.9,8.9c-0.8,0.9-1.7,1.9-2.7,2.9c-1,1-1.9,2-2.9,3c-0.9,1-1.8,1.8-2.6,2.6s-1.4,1.3-1.9,1.6
		c-0.2,0.1-0.4,0.3-0.7,0.5c-0.2,0.2-0.5,0.4-0.8,0.6c-1.9,1.5-3.8,3-5.8,4.4c-2,1.5-4,2.9-6.1,4.3c-2.1,1.4-4.2,2.7-6.3,3.9
		c-2.1,1.2-4.2,2.4-6.3,3.5l-13.5,22.7c1.4-0.2,3-0.5,4.7-1s3.4-1.1,5.2-1.8s3.5-1.4,5.2-2.1c1.7-0.7,3.3-1.4,4.8-2
		c0.2,0,0.5,0.2,0.9,0.7c0,0.4-0.2,0.7-0.5,0.9c-1.6,0.7-3.2,1.4-4.9,2.2c-1.7,0.8-3.4,1.5-5.2,2.2c-1.8,0.7-3.5,1.3-5.3,1.8
		c-1.8,0.5-3.5,0.9-5.3,1h-0.5l-8.5,13.8c0,0.3-0.2,0.5-0.5,0.5l-6.4-0.5c-0.2,0.2-0.5,0.3-0.9,0.3c-0.3-0.3-0.5-0.5-0.5-0.7
		c0-0.1,0.1-0.3,0.2-0.4l8.3-14c-0.7-0.2-1.5-0.5-2.3-0.9c-0.8-0.4-1.5-0.8-2-1.3c-0.6-0.5-1-1.1-1.4-1.7c-0.4-0.6-0.5-1.3-0.5-2
		c0-0.2,0-0.4,0.1-0.6C556.1,101.6,556.2,101.4,556.2,101.2z M609.7,66.7h0.3c0.5-0.6,1.1-1.1,1.7-1.6c0.6-0.5,1.2-1,1.7-1.5
		c0.8-1,1.6-2.1,2.4-3.3c0.8-1.2,1.5-2.5,2.1-3.8c0.6-1.3,1.1-2.5,1.5-3.7c0.4-1.2,0.6-2.2,0.6-3c0-0.5,0-1-0.1-1.4
		c-0.1-0.5-0.3-0.9-0.5-1.2s-0.6-0.6-1-0.8c-0.5-0.2-1.1-0.3-1.9-0.3c-2.1,0-4.6,0.8-7.6,2.4c-0.1,0.2-0.3,0.3-0.6,0.5
		c-0.2,0.1-0.4,0.3-0.6,0.4c-1,0.8-2,1.9-3.1,3.3c-1.1,1.4-2.2,3-3.4,4.9c-1.2,1.8-2.4,3.9-3.7,6c-1.3,2.2-2.6,4.5-3.9,6.8
		c-1,2.1-2.1,4.1-3.3,6.1c-1.1,2-2.3,4-3.6,6l-0.3,0.6c1.4-0.8,2.8-1.6,4.1-2.4c1.4-0.8,2.8-1.6,4.2-2.6c2.4-1.5,4.8-3.1,7.1-4.8
		c2.3-1.7,4.5-3.4,6.7-5.2L609.7,66.7z"/>
</g>
</svg>
