<?xml version="1.0" encoding="utf-8"?>
<!-- Generator: Adobe Illustrator 21.1.0, SVG Export Plug-In . SVG Version: 6.00 Build 0)  -->
<svg version="1.1" id="Layer_1" xmlns="http://www.w3.org/2000/svg" xmlns:xlink="http://www.w3.org/1999/xlink" x="0px" y="0px"
	 viewBox="0 0 180 127.6" style="enable-background:new 0 0 180 127.6;" xml:space="preserve">
<g>
	<path d="M139.8,8.9l0.3-0.3c1.9-1.3,3.8-2.5,5.8-3.5c2-1,4.1-1.9,6.1-2.6c2.1-0.7,4.1-1.2,6.1-1.6c2-0.4,3.9-0.6,5.8-0.7
		c1.7,0,3.4,0.2,4.8,0.5c1.5,0.4,2.8,0.8,4,1.4c1.2,0.6,2.2,1.3,3,2c0.8,0.8,1.5,1.5,2,2.3c1.2,1.6,1.9,4,2.3,7.3v0.3
		c0,3.1-0.7,6-2.2,8.8c-1.4,2.8-3.4,5.4-5.9,8c-2.5,2.5-5.4,5-8.7,7.3c-3.3,2.3-6.9,4.5-10.6,6.7c-3,2-6.6,4-10.6,5.8h-0.3
		C134.6,54,129.4,57.9,126,62c-3.4,4.1-5.1,8.2-5.1,12.2c0,1,0.1,2,0.2,3.1c0.2,1,0.2,2,0.2,3c0,5.6-1.8,10.3-5.2,14.4
		c-2.1,2.6-4.6,5-7.3,7.2c-2.7,2.2-5.7,4.4-9,6.6c-1.4,0.8-2.8,1.8-4.2,2.8c-1.4,1-3,2-4.7,2.9c-0.7,0.3-1.4,0.7-2.1,1.1
		c-0.7,0.3-1.3,0.8-2,1.2h-0.3c-0.3,0.3-0.5,0.4-0.6,0.4c-0.1,0-0.2-0.1-0.3-0.4c-0.1-0.2-0.2-0.5-0.2-0.8c0-0.2,0.2-0.4,0.5-0.4
		l2.3-1.4c2.3-1.2,4.4-2.4,6.5-3.7c2-1.3,3.9-2.5,5.6-3.8c1.7-1.3,3.3-2.6,4.6-3.9c1.3-1.3,2.4-2.7,3.2-4.1c1.2-2.2,1.8-5.1,1.8-8.7
		c0-1.2-0.1-2.4-0.3-3.7s-0.3-2.7-0.3-4.1c0-2.2,0.4-4.4,1.2-6.5c0.8-2.1,2-4.2,3.4-6.2c1.4-2,3.2-4,5.2-5.8s4.2-3.6,6.6-5.3
		c2.3-1.7,4.8-3.2,7.4-4.7c2.6-1.5,5.3-2.8,8-4.1c1.8-1,3.6-2.1,5.3-3c1.7-1,3.5-1.9,5.3-2.8c6.2-3.9,10.7-8.1,13.6-12.5
		c2.8-4.4,4.2-9.2,4.2-14.3c0-1.7-0.1-3.1-0.4-4.2c-0.2-1.1-0.8-2.1-1.7-2.9c-0.8-1-1.7-1.7-2.7-2.4c-1-0.6-2.1-1.1-3.2-1.5
		c-1.1-0.4-2.2-0.6-3.2-0.8c-1-0.1-2-0.2-3-0.2c-2.9,0-5.8,0.5-8.6,1.6c-1.2,0.7-2.4,1.4-3.4,2c-1,0.7-1.9,1.2-2.7,1.8
		c-4.4,3.5-8.6,7.1-12.5,10.8c-3.9,3.7-7.6,7.6-11.1,11.7c-3.3,3.6-6.4,7.2-9.3,10.8c-2.8,3.6-5.5,7.3-8.1,11
		c-2.6,3.7-5,7.6-7.3,11.5c-2.3,3.9-4.6,7.9-7,11.9c-3.1,5.4-6.2,10.8-9.3,16c-3.1,5.2-6.2,10.5-9.5,15.9c0.6,0,1,0.1,1.1,0.3h0.3
		c0.7,0.1,1.2,0.4,1.8,0.9c0.5,0.5,1,1.1,1.4,1.8c0.4,0.8,0.7,1.6,1,2.6c0.2,1,0.4,2,0.4,3c0,0.3,0,0.5,0,0.9c0,0.3-0.1,0.6-0.1,0.8
		v0.3c-0.3,1.1-0.7,2-1.2,2.9c-0.5,0.9-1.2,1.7-2,2.4c-0.8,0.7-1.8,1.2-2.9,1.6c-1.1,0.4-2.3,0.6-3.7,0.6c-0.4,0-0.9-0.1-1.4-0.3
		h-0.3c-0.5-0.1-1-0.3-1.3-0.5c-0.3-0.2-0.6-0.4-0.8-0.8c-0.2-0.3-0.4-0.7-0.4-1.2c-0.1-0.5-0.1-1.1-0.1-1.8
		c0.1-0.7,0.4-1.5,0.8-2.4c0.4-0.9,0.9-2.1,1.5-3.4c0.5-1.1,1.1-2.2,1.8-3.3c0.7-1,1.3-2.2,1.9-3.3c-0.4,0-0.7,0-1,0
		c-0.3,0-0.6,0-0.8,0c-1.4,0-2.8,0.1-4.1,0.4c-1.3,0.3-2.6,0.7-3.9,1.4c-1.2,0.7-2.5,1.6-3.7,2.7c-1.2,1.1-2.5,2.5-3.8,4.1h-0.3
		c-0.1,0.1-0.2,0.1-0.4,0.1c0,0-0.1,0-0.1-0.1h-0.3c-0.2-0.2-0.3-0.5-0.3-0.9v-0.3c2.6-4.6,5.1-9.1,7.5-13.6
		c2.4-4.5,4.8-8.9,7.2-13.4c2.3-4.5,4.6-9,6.9-13.5c2.3-4.5,4.5-9.1,6.8-13.8l-15.6,7.7v4.3c-0.3,8.5-3.6,15.8-10,21.9
		c-2.3,2.3-4.9,4.4-7.8,6.3c-2.9,1.9-6,3.8-9.2,5.4c-0.7,0.5-1.4,0.9-2.1,1.3c-0.7,0.4-1.4,0.7-2.1,1h-0.3c-2.4,1.3-4.9,2.3-7.5,3.1
		s-5.1,1.1-7.5,1.1c-2.7,0-4.9-0.4-6.6-1.1c-1.7-0.7-2.8-1.7-3.3-3.1c-0.3-0.4-0.4-0.8-0.6-1.1c-0.1-0.4-0.2-0.8-0.2-1.3
		c0-1.8,0.5-3.6,1.5-5.5c1-1.9,2.6-3.9,4.6-5.8c2.1-2,4.6-4,7.7-6c3.1-2,6.7-3.9,10.9-5.8l23-11.5v-0.9C49,71.3,48.5,69,47.8,67
		c-0.7-2-1.6-3.7-2.8-5.2c-1.2-1.4-2.5-2.5-4.1-3.3c-1.6-0.8-3.5-1.1-5.7-1.1c-1.9,0-4.1,0.4-6.4,1.1c-2.3,0.8-4.9,1.8-7.8,3.2
		L1.1,75.3c-0.6,0-0.9-0.1-1-0.3C0,74.7,0,74.6,0,74.5c0-0.2,0.1-0.4,0.3-0.6h0.6v-0.3l19.2-12.9h0.3v-0.3c8.6-5,15.8-7.5,21.7-7.5
		c2.8,0,5.1,0.5,7.1,1.4c2,0.9,3.7,2.2,5,3.7c1.4,1.6,2.4,3.4,3.1,5.5c0.7,2.1,1.2,4.3,1.3,6.7l17.1-8.4c0-0.2,0-0.3,0.1-0.3
		l11.6-5.8h0.8v0.6h0.3v0.3h-0.3v0.3c-2.1,4.2-4.2,8.4-6.4,12.5c-2.2,4.2-4.4,8.4-6.7,12.7c-2.3,4.3-4.6,8.7-7,13.1
		c-2.4,4.4-4.8,9.1-7.3,14c0.4-0.1,0.9-0.1,1.4-0.1c0.5,0,1,0,1.5,0.1c0.5,0,1.1,0.1,1.7,0.1c5.1-8.8,10.1-17.4,15.2-26.1
		c5-8.6,10.2-17.5,15.6-26.6h0.3c2.9-4.5,6-8.8,9.3-13c3.3-4.1,6.7-8.2,10.3-12.3c3.6-3.9,7.3-7.8,11.2-11.6
		C131.2,15.9,135.4,12.3,139.8,8.9z M27,87.6c-1.5,0.8-3.2,1.8-5.1,3.1c-1.9,1.2-3.7,2.7-5.5,4.3s-3.3,3.5-4.6,5.5
		c-1.3,2-2.1,4.2-2.3,6.4c-0.1,0.1-0.2,0.4-0.2,0.7c0,0.8,0.3,1.5,0.9,2c0.6,0.5,1.3,1,2,1.3c0.8,0.3,1.5,0.6,2.3,0.7
		c0.7,0.2,1.3,0.2,1.6,0.2c1,0.2,2.1,0.3,3.1,0.3c2.7,0,5.2-0.6,7.6-1.8c3.9-1.5,7.3-3.6,10.1-6.1c2.8-2.6,5.2-5.3,7.1-8.3
		c1.9-3,3.3-6,4.2-9.2c0.9-3.2,1.4-6.1,1.4-8.9c0-0.3,0-0.5,0-0.8c0-0.3,0-0.5,0-0.8L27.2,87.6H27z"/>
</g>
</svg>
