<?xml version="1.0" encoding="utf-8"?>
<!-- Generator: Adobe Illustrator 21.1.0, SVG Export Plug-In . SVG Version: 6.00 Build 0)  -->
<svg version="1.1" id="Layer_1" xmlns="http://www.w3.org/2000/svg" xmlns:xlink="http://www.w3.org/1999/xlink" x="0px" y="0px"
	 viewBox="0 0 26 85.6" style="enable-background:new 0 0 26 85.6;" xml:space="preserve">
<g>
	<path d="M17.7,72.2c-0.3-4.4-0.5-9.1-0.6-13.7c-0.3-3.9-0.4-7.8-0.5-11.8l-0.4-13.5c-0.1-1.4-0.6-3.5-1.9-3.5
		c-1.9,0-3.1-1.2-4.4-1.6c-3.9-1.3-7.5-2.6-9.2-7c-0.9-2.2-0.5-6.1-0.5-8.4c0.1-2.6,0.8-5.6,1.4-8.2c0.3-1,0.3-1.9,0.8-2.9
		c1.2-2.1,2.3-2.2,4.3-0.9c0.9,0.5,1.9,2.1,3,2.5c1.8,0.8,3.5,1.8,5.3,2.6c6.9,2.6,10.4,6.2,8.7,13.1c-0.3,1-0.6,2.9-0.9,3.6
		c-1.6,5.1-2.6,11-1.6,16.8l0.5,3.2c0.5,2.2,0.9,4.4,1.3,6.6c0.4,2.6,0.9,5.1,1.4,7.6c0.5,2.6,1.4,5.2,1.6,7.9
		c0.3,2.7,0.1,5.4-0.3,8.3c-0.4,2.7-1.6,5.6-2.6,8.4c-0.5,1.4-0.9,2.7-2.3,3.5c-2.1,1.2-2.7,0.3-2.9-2.1c-0.1-1.8-0.1-3.6-0.1-5.4
		V72.2z"/>
</g>
</svg>
