<?xml version="1.0" encoding="utf-8"?>
<!-- Generator: Adobe Illustrator 21.1.0, SVG Export Plug-In . SVG Version: 6.00 Build 0)  -->
<svg version="1.1" id="Layer_1" xmlns="http://www.w3.org/2000/svg" xmlns:xlink="http://www.w3.org/1999/xlink" x="0px" y="0px"
	 viewBox="0 0 196 196" style="enable-background:new 0 0 196 196;" xml:space="preserve">
<style type="text/css">
	.st0{fill:#B9D9EB;}
	.st1{fill:#0033A0;}
</style>
<rect class="st0" width="196" height="196"/>
<g>
	<path class="st1" d="M136.6,94.8c-1.8,12.3-8.2,28.3-19.2,48.4c-3.2,5.5-8.2,9.1-15.5,11c-6.4,1.4-12.8,3.2-19.2,5
		c-4.6,1.4-11.9,3.7-21.5,6.4c-2.3,0-3.7-0.9-4.1-2.3c0-1.8,1.8-3.7,5-5.5c10-5.9,20.1-11.9,29.7-17.4c11-6.9,20.1-14.2,27.9-21.5
		c2.3-3.2,3.2-7.3,2.3-12.3c-1.4-3.7-3.2-5.9-5-7.3c-2.7,0.5-5,0.9-7.3,0.9c-9.1,0-15.5-3.2-20.1-9.1c-1.8-2.7-2.7-5.9-2.7-9.1
		c0-3.7,0.9-7.8,3.2-13.2c2.3-4.1,4.1-8.2,5.5-12.3c1.8-4.6,3.2-9.1,5-14.2c2.7-5.5,6.4-9.1,11-11c8.2-1.4,15.1,1.8,20.1,10
		c5.5,9.1,8.2,20.1,8.2,32.9C139.3,80.2,138.4,87.5,136.6,94.8z"/>
</g>
</svg>
