<?xml version="1.0" encoding="utf-8"?>
<!-- Generator: Adobe Illustrator 24.2.0, SVG Export Plug-In . SVG Version: 6.00 Build 0)  -->
<svg version="1.1" id="Layer_1" xmlns="http://www.w3.org/2000/svg" xmlns:xlink="http://www.w3.org/1999/xlink" x="0px" y="0px"
	 viewBox="0 0 24 24" style="enable-background:new 0 0 24 24;" xml:space="preserve">
<path d="M16,22c-0.6,0-1-0.4-1-1v-2c0-1.7-1.3-3-3-3H5c-1.7,0-3,1.3-3,3v2c0,0.6-0.4,1-1,1s-1-0.4-1-1v-2c0-2.8,2.2-5,5-5h7
	c2.8,0,5,2.2,5,5v2C17,21.6,16.6,22,16,22z"/>
<path d="M8.5,12c-2.8,0-5-2.2-5-5s2.2-5,5-5s5,2.2,5,5S11.3,12,8.5,12z M8.5,4c-1.7,0-3,1.3-3,3s1.3,3,3,3s3-1.3,3-3S10.2,4,8.5,4z"
	/>
<path d="M23,14c-0.3,0-0.5-0.1-0.7-0.3l-5-5c-0.4-0.4-0.4-1,0-1.4s1-0.4,1.4,0l5,5c0.4,0.4,0.4,1,0,1.4C23.5,13.9,23.3,14,23,14z"/>
<path d="M18,14c-0.3,0-0.5-0.1-0.7-0.3c-0.4-0.4-0.4-1,0-1.4l5-5c0.4-0.4,1-0.4,1.4,0s0.4,1,0,1.4l-5,5C18.5,13.9,18.3,14,18,14z"/>
</svg>
