<?xml version="1.0" encoding="utf-8"?>
<!-- Generator: Adobe Illustrator 24.2.0, SVG Export Plug-In . SVG Version: 6.00 Build 0)  -->
<svg version="1.1" id="Layer_1" xmlns="http://www.w3.org/2000/svg" xmlns:xlink="http://www.w3.org/1999/xlink" x="0px" y="0px"
	 viewBox="0 0 24 24" style="enable-background:new 0 0 24 24;" xml:space="preserve">
<path d="M13.5,20H5c-0.6,0-1-0.4-1-1v-8.5c0-0.3,0.1-0.5,0.3-0.7L11,3c2.7-2.7,7.2-2.7,9.9,0c2.7,2.7,2.7,7.2,0,9.9l-6.7,6.8
	C14,19.9,13.8,20,13.5,20z M6,18h7.1l6.4-6.5c0,0,0,0,0,0c2-2,2-5.1,0-7.1c-2-2-5.1-2-7.1,0L6,10.9V18z"/>
<path d="M2,23c-0.3,0-0.5-0.1-0.7-0.3c-0.4-0.4-0.4-1,0-1.4l14-14c0.4-0.4,1-0.4,1.4,0s0.4,1,0,1.4l-14,14C2.5,22.9,2.3,23,2,23z"/>
<path d="M17.5,16H9c-0.6,0-1-0.4-1-1s0.4-1,1-1h8.5c0.6,0,1,0.4,1,1S18.1,16,17.5,16z"/>
</svg>
