<?xml version="1.0" encoding="utf-8"?>
<!-- Generator: Adobe Illustrator 24.2.0, SVG Export Plug-In . SVG Version: 6.00 Build 0)  -->
<svg version="1.1" id="Layer_1" xmlns="http://www.w3.org/2000/svg" xmlns:xlink="http://www.w3.org/1999/xlink" x="0px" y="0px"
	 viewBox="0 0 24 24" style="enable-background:new 0 0 24 24;" xml:space="preserve">
<style type="text/css">
	.st0{fill:#121112;}
</style>
<path class="st0" d="M18.5,23.5h-12c-0.8,0-1.5-0.3-2.1-0.9c-0.6-0.6-0.9-1.3-0.9-2.1v-16c0-0.8,0.3-1.5,0.9-2.1s1.3-0.9,2.1-0.9h8
	c0.3,0,0.5,0.1,0.7,0.3l6,6c0.2,0.2,0.3,0.4,0.3,0.7v12c0,0.8-0.3,1.5-0.9,2.1C20,23.2,19.3,23.5,18.5,23.5z M6.5,3.5
	C6.2,3.5,6,3.6,5.8,3.8C5.6,4,5.5,4.2,5.5,4.5v16c0,0.3,0.1,0.5,0.3,0.7c0.2,0.2,0.4,0.3,0.7,0.3h12c0.3,0,0.5-0.1,0.7-0.3
	c0.2-0.2,0.3-0.4,0.3-0.7V8.9l-5.4-5.4H6.5z"/>
<path class="st0" d="M20.5,9.5h-6c-0.6,0-1-0.4-1-1v-6c0-0.6,0.4-1,1-1s1,0.4,1,1v5h5c0.6,0,1,0.4,1,1S21.1,9.5,20.5,9.5z"/>
<path class="st0" d="M15.5,19.5c-0.3,0-0.5-0.1-0.7-0.3l-5-5c-0.4-0.4-0.4-1,0-1.4s1-0.4,1.4,0l5,5c0.4,0.4,0.4,1,0,1.4
	C16,19.4,15.8,19.5,15.5,19.5z"/>
<path class="st0" d="M10.5,19.5c-0.3,0-0.5-0.1-0.7-0.3c-0.4-0.4-0.4-1,0-1.4l5-5c0.4-0.4,1-0.4,1.4,0s0.4,1,0,1.4l-5,5
	C11,19.4,10.8,19.5,10.5,19.5z"/>
</svg>
