<?xml version="1.0" encoding="utf-8"?>
<!-- Generator: Adobe Illustrator 24.2.0, SVG Export Plug-In . SVG Version: 6.00 Build 0)  -->
<svg version="1.1" id="Layer_1" xmlns="http://www.w3.org/2000/svg" xmlns:xlink="http://www.w3.org/1999/xlink" x="0px" y="0px"
	 viewBox="0 0 24 24" style="enable-background:new 0 0 24 24;" xml:space="preserve">
<g>
	<path d="M18.1,11.5c-0.3,1.8-1.2,4.2-2.8,7.2c-0.5,0.8-1.2,1.3-2.3,1.6c-0.9,0.2-1.9,0.5-2.8,0.7C9.5,21.3,8.4,21.6,7,22
		c-0.3,0-0.5-0.1-0.6-0.3c0-0.3,0.3-0.5,0.7-0.8c1.5-0.9,3-1.8,4.4-2.6c1.6-1,3-2.1,4.1-3.2c0.3-0.5,0.5-1.1,0.3-1.8
		c-0.2-0.5-0.5-0.9-0.7-1.1c-0.4,0.1-0.7,0.1-1.1,0.1c-1.3,0-2.3-0.5-3-1.3c-0.3-0.4-0.4-0.9-0.4-1.3c0-0.5,0.1-1.2,0.5-2
		c0.3-0.6,0.6-1.2,0.8-1.8c0.3-0.7,0.5-1.3,0.7-2.1c0.4-0.8,0.9-1.3,1.6-1.6c1.2-0.2,2.2,0.3,3,1.5c0.8,1.3,1.2,3,1.2,4.9
		C18.5,9.4,18.4,10.4,18.1,11.5z"/>
</g>
</svg>
