<?xml version="1.0" encoding="utf-8"?>
<!-- Generator: Adobe Illustrator 24.2.0, SVG Export Plug-In . SVG Version: 6.00 Build 0)  -->
<svg version="1.1" id="Layer_1" xmlns="http://www.w3.org/2000/svg" xmlns:xlink="http://www.w3.org/1999/xlink" x="0px" y="0px"
	 viewBox="0 0 24 24" style="enable-background:new 0 0 24 24;" xml:space="preserve">
<path d="M16,23c-0.2,0-0.3,0-0.4-0.1L8,19.1l-6.5,3.7c-0.3,0.2-0.7,0.2-1,0C0.2,22.7,0,22.4,0,22V6c0-0.4,0.2-0.7,0.5-0.9l7-4
	C7.8,1,8.1,1,8.4,1.1L16,4.9l6.5-3.7c0.3-0.2,0.7-0.2,1,0C23.8,1.3,24,1.6,24,2v16c0,0.4-0.2,0.7-0.5,0.9l-7,4
	C16.3,23,16.2,23,16,23z M8,17c0.2,0,0.3,0,0.4,0.1l7.5,3.8l6-3.4V3.7l-5.5,3.1c-0.3,0.2-0.6,0.2-0.9,0L8,3.1L2,6.6v13.7l5.5-3.1
	C7.7,17,7.8,17,8,17z"/>
<path d="M8,19c-0.6,0-1-0.4-1-1V2c0-0.6,0.4-1,1-1s1,0.4,1,1v16C9,18.6,8.6,19,8,19z"/>
<path d="M16,23c-0.6,0-1-0.4-1-1V6c0-0.6,0.4-1,1-1s1,0.4,1,1v16C17,22.6,16.6,23,16,23z"/>
</svg>
