<?xml version="1.0" encoding="utf-8"?>
<!-- Generator: Adobe Illustrator 24.2.0, SVG Export Plug-In . SVG Version: 6.00 Build 0)  -->
<svg version="1.1" id="Layer_1" xmlns="http://www.w3.org/2000/svg" xmlns:xlink="http://www.w3.org/1999/xlink" x="0px" y="0px"
	 viewBox="0 0 24 24" style="enable-background:new 0 0 24 24;" xml:space="preserve">
<style type="text/css">
	.st0{fill:#121112;}
</style>
<path class="st0" d="M14,21c-1,0-1.8-0.3-2.5-1c0,0-0.1-0.1-0.1-0.1c-0.6-0.8-0.9-1.6-0.9-2.4V16h-3v1.5c0,1-0.3,1.8-1,2.5
	c0,0-0.1,0.1-0.1,0.1c-1.5,1.2-3.3,1.2-4.8,0c-0.1,0-0.1-0.1-0.2-0.2c-0.6-0.8-0.9-1.6-0.9-2.4c0-1,0.3-1.8,1-2.5
	c0,0,0.1-0.1,0.1-0.1C2.3,14.3,3.2,14,4,14h1.5v-3H4c-0.8,0-1.7-0.3-2.4-0.9C1.5,10,1.5,10,1.4,9.9C0.8,9.2,0.5,8.3,0.5,7.5
	s0.3-1.7,0.9-2.4C1.5,5,1.5,5,1.6,4.9c1.5-1.2,3.3-1.2,4.8,0C6.5,5,6.5,5,6.6,5.1c0.6,0.8,0.9,1.6,0.9,2.4V9h3V7.5
	c0-1,0.3-1.8,1-2.5c0,0,0.1-0.1,0.1-0.1c1.5-1.2,3.3-1.2,4.8,0c0.1,0,0.1,0.1,0.2,0.2c0.6,0.8,0.9,1.6,0.9,2.4c0,1-0.3,1.8-1,2.5
	c0,0-0.1,0.1-0.1,0.1C15.7,10.7,14.8,11,14,11h-1.5v3H14c0.8,0,1.7,0.3,2.4,0.9c0.1,0,0.1,0.1,0.2,0.2c0.6,0.8,0.9,1.6,0.9,2.4
	c0,1-0.3,1.8-1,2.5c0,0-0.1,0.1-0.1,0.1C15.7,20.7,14.8,21,14,21z M12.9,18.6c0.3,0.3,0.6,0.4,1.1,0.4c0.4,0,0.7-0.1,1.1-0.4
	c0.3-0.3,0.4-0.6,0.4-1.1c0-0.4-0.1-0.7-0.4-1.1C14.7,16.1,14.4,16,14,16h-1.5v1.5C12.5,17.9,12.6,18.2,12.9,18.6z M2.9,18.6
	c0.8,0.6,1.5,0.6,2.2,0c0.3-0.3,0.4-0.6,0.4-1.1V16H4c-0.4,0-0.7,0.1-1.1,0.4c-0.3,0.3-0.4,0.6-0.4,1.1C2.5,17.9,2.6,18.2,2.9,18.6z
	 M7.5,14h3v-3h-3V14z M12.5,9H14c0.4,0,0.7-0.1,1.1-0.4c0.3-0.3,0.4-0.6,0.4-1.1c0-0.4-0.1-0.7-0.4-1.1c-0.8-0.6-1.5-0.6-2.2,0
	c-0.3,0.3-0.4,0.6-0.4,1.1V9z M2.9,8.6C3.3,8.9,3.6,9,4,9h1.5V7.5c0-0.4-0.1-0.7-0.4-1.1c-0.7-0.6-1.4-0.6-2.2,0
	C2.6,6.8,2.5,7.1,2.5,7.5S2.6,8.2,2.9,8.6z"/>
<path class="st0" d="M20.5,16.5c-0.6,0-1-0.4-1-1v-6c0-0.6,0.4-1,1-1s1,0.4,1,1v6C21.5,16.1,21.1,16.5,20.5,16.5z"/>
<path class="st0" d="M23.5,13.5h-6c-0.6,0-1-0.4-1-1c0-0.6,0.4-1,1-1h6c0.6,0,1,0.4,1,1C24.5,13.1,24.1,13.5,23.5,13.5z"/>
</svg>
