<?xml version="1.0" encoding="utf-8"?>
<!-- Generator: Adobe Illustrator 24.2.0, SVG Export Plug-In . SVG Version: 6.00 Build 0)  -->
<svg version="1.1" id="Layer_1" xmlns="http://www.w3.org/2000/svg" xmlns:xlink="http://www.w3.org/1999/xlink" x="0px" y="0px"
	 viewBox="0 0 24 24" style="enable-background:new 0 0 24 24;" xml:space="preserve">
<path d="M18,22c-2.2,0-4-1.8-4-4v-2h-4v2c0,2.2-1.8,4-4,4s-4-1.8-4-4s1.8-4,4-4h2v-4H6c-2.2,0-4-1.8-4-4s1.8-4,4-4s4,1.8,4,4v2h4V6
	c0-2.2,1.8-4,4-4s4,1.8,4,4s-1.8,4-4,4h-2v4h2c2.2,0,4,1.8,4,4S20.2,22,18,22z M16,16v2c0,1.1,0.9,2,2,2s2-0.9,2-2s-0.9-2-2-2H16z
	 M6,16c-1.1,0-2,0.9-2,2s0.9,2,2,2s2-0.9,2-2v-2H6z M10,14h4v-4h-4V14z M16,8h2c1.1,0,2-0.9,2-2s-0.9-2-2-2s-2,0.9-2,2V8z M6,4
	C4.9,4,4,4.9,4,6s0.9,2,2,2h2V6C8,4.9,7.1,4,6,4z"/>
</svg>
