<?xml version="1.0" encoding="utf-8"?>
<!-- Generator: Adobe Illustrator 24.2.0, SVG Export Plug-In . SVG Version: 6.00 Build 0)  -->
<svg version="1.1" id="Layer_1" xmlns="http://www.w3.org/2000/svg" xmlns:xlink="http://www.w3.org/1999/xlink" x="0px" y="0px"
	 viewBox="0 0 24 24" style="enable-background:new 0 0 24 24;" xml:space="preserve">
<path d="M12,23c-0.5,0-1-0.1-1.5-0.4l-7-4C2.6,18.1,2,17.1,2,16V8c0-1.1,0.6-2.1,1.5-2.6l7-4c0.9-0.5,2.1-0.5,3,0l7,4
	C21.4,5.9,22,6.9,22,8v8v0c0,1.1-0.6,2.1-1.5,2.6l-7,4C13,22.9,12.5,23,12,23z M12,3c-0.2,0-0.3,0-0.5,0.1l-7,4C4.2,7.3,4,7.6,4,8v8
	c0,0.4,0.2,0.7,0.5,0.9l7,4c0.3,0.2,0.7,0.2,1,0l7-4c0.3-0.2,0.5-0.5,0.5-0.9V8c0-0.4-0.2-0.7-0.5-0.9l-7-4C12.3,3,12.2,3,12,3z
	 M21,16L21,16L21,16z"/>
<path d="M12,13c-0.2,0-0.3,0-0.5-0.1l-8.7-5C2.3,7.5,2.1,6.9,2.4,6.5C2.7,6,3.3,5.8,3.8,6.1l8.2,4.8l8.2-4.8
	c0.5-0.3,1.1-0.1,1.4,0.4c0.3,0.5,0.1,1.1-0.4,1.4l-8.7,5C12.3,13,12.2,13,12,13z"/>
<path d="M12,23.1c-0.6,0-1-0.4-1-1V12c0-0.6,0.4-1,1-1s1,0.4,1,1v10.1C13,22.6,12.6,23.1,12,23.1z"/>
</svg>
