<?xml version="1.0" encoding="utf-8"?>
<!-- Generator: Adobe Illustrator 24.2.0, SVG Export Plug-In . SVG Version: 6.00 Build 0)  -->
<svg version="1.1" id="Layer_1" xmlns="http://www.w3.org/2000/svg" xmlns:xlink="http://www.w3.org/1999/xlink" x="0px" y="0px"
	 viewBox="0 0 24 24" style="enable-background:new 0 0 24 24;" xml:space="preserve">
<path d="M12,23c-1.4,0-2.9-0.3-4.3-0.9c-5.6-2.4-8.2-8.8-5.8-14.4C3,5.1,5,3,7.6,1.9c0.5-0.2,1.1,0,1.3,0.5s0,1.1-0.5,1.3
	C6.3,4.7,4.6,6.4,3.7,8.5c-1.9,4.6,0.2,9.9,4.8,11.8c4.6,1.9,9.9-0.2,11.8-4.8c0.2-0.5,0.8-0.7,1.3-0.5c0.5,0.2,0.7,0.8,0.5,1.3
	C20.4,20.5,16.3,23,12,23z"/>
<path d="M22,13H12c-0.6,0-1-0.4-1-1V2c0-0.6,0.4-1,1-1c6.1,0,11,4.9,11,11C23,12.6,22.6,13,22,13z M13,11h7.9
	c-0.5-4.2-3.8-7.5-7.9-7.9V11z"/>
</svg>
