<?xml version="1.0" encoding="utf-8"?>
<!-- Generator: Adobe Illustrator 24.2.0, SVG Export Plug-In . SVG Version: 6.00 Build 0)  -->
<svg version="1.1" id="Layer_1" xmlns="http://www.w3.org/2000/svg" xmlns:xlink="http://www.w3.org/1999/xlink" x="0px" y="0px"
	 viewBox="0 0 24 24" style="enable-background:new 0 0 24 24;" xml:space="preserve">
<style type="text/css">
	.st0{fill:#121112;}
</style>
<path class="st0" d="M4.5,21c-0.6,0-1-0.4-1-1c0-0.8,0.3-1.7,0.9-2.4c0,0,0-0.1,0.1-0.1c0.7-0.7,1.5-1,2.5-1h13.5c0.6,0,1,0.4,1,1
	s-0.4,1-1,1H7c-0.5,0-0.8,0.1-1.1,0.4c-0.3,0.4-0.4,0.8-0.4,1.1C5.5,20.6,5.1,21,4.5,21z"/>
<path class="st0" d="M20.5,23.5H7c-0.8,0-1.7-0.3-2.4-0.9c0,0-0.1,0-0.1-0.1c-0.7-0.7-1-1.5-1-2.5V5c0-0.8,0.3-1.7,0.9-2.4
	c0-0.1,0.1-0.1,0.2-0.2C5.3,1.8,6.2,1.5,7,1.5h13.5c0.6,0,1,0.4,1,1v20C21.5,23.1,21.1,23.5,20.5,23.5z M5.9,21.1
	c0.4,0.3,0.8,0.4,1.1,0.4h12.5v-18H7c-0.4,0-0.7,0.1-1.1,0.4C5.6,4.3,5.5,4.6,5.5,5v15C5.5,20.5,5.6,20.8,5.9,21.1z"/>
<path class="st0" d="M15.5,14c-0.3,0-0.5-0.1-0.7-0.3l-5-5c-0.4-0.4-0.4-1,0-1.4s1-0.4,1.4,0l5,5c0.4,0.4,0.4,1,0,1.4
	C16,13.9,15.8,14,15.5,14z"/>
<path class="st0" d="M10.5,14c-0.3,0-0.5-0.1-0.7-0.3c-0.4-0.4-0.4-1,0-1.4l5-5c0.4-0.4,1-0.4,1.4,0s0.4,1,0,1.4l-5,5
	C11,13.9,10.8,14,10.5,14z"/>
</svg>
