<?xml version="1.0" encoding="utf-8"?>
<!-- Generator: Adobe Illustrator 24.2.0, SVG Export Plug-In . SVG Version: 6.00 Build 0)  -->
<svg version="1.1" id="Layer_1" xmlns="http://www.w3.org/2000/svg" xmlns:xlink="http://www.w3.org/1999/xlink" x="0px" y="0px"
	 viewBox="0 0 24 24" style="enable-background:new 0 0 24 24;" xml:space="preserve">
<path d="M4,20.5c-0.6,0-1-0.4-1-1C3,17.6,4.6,16,6.5,16H20c0.6,0,1,0.4,1,1s-0.4,1-1,1H6.5C5.7,18,5,18.7,5,19.5
	C5,20.1,4.6,20.5,4,20.5z"/>
<path d="M20,23H6.5C4.6,23,3,21.4,3,19.5v-15C3,2.6,4.6,1,6.5,1H20c0.6,0,1,0.4,1,1v20C21,22.6,20.6,23,20,23z M6.5,3
	C5.7,3,5,3.7,5,4.5v15C5,20.3,5.7,21,6.5,21H19V3H6.5z"/>
</svg>
