<?xml version="1.0" standalone="no"?>
<!DOCTYPE svg PUBLIC "-//W3C//DTD SVG 20010904//EN"
 "http://www.w3.org/TR/2001/REC-SVG-20010904/DTD/svg10.dtd">
<svg version="1.0" xmlns="http://www.w3.org/2000/svg"
 width="196.000000pt" height="196.000000pt" viewBox="0 0 196.000000 196.000000"
 preserveAspectRatio="xMidYMid meet">
<metadata>
Created by potrace 1.11, written by Peter Selinger 2001-2013
</metadata>
<g transform="translate(0.000000,196.000000) scale(0.100000,-0.100000)"
fill="#000000" stroke="none">
<path d="M1077 1632 c-44 -29 -74 -79 -103 -166 -14 -45 -42 -114 -60 -153
-65 -138 -66 -222 -6 -286 48 -51 98 -71 187 -72 79 -1 80 -1 102 -34 71 -106
-31 -214 -412 -436 -191 -111 -217 -131 -213 -158 2 -13 11 -23 24 -25 12 -2
90 17 173 43 84 25 182 52 217 60 81 19 134 46 167 85 32 38 136 250 172 350
37 104 74 300 75 391 0 176 -65 340 -156 396 -49 29 -126 31 -167 5z"/>
</g>
</svg>
