<?xml version="1.0" encoding="UTF-8"?>
<svg width="97px" height="38px" viewBox="0 0 97 38" version="1.1" xmlns="http://www.w3.org/2000/svg" xmlns:xlink="http://www.w3.org/1999/xlink">
    <!-- Generator: Sketch 50.2 (55047) - http://www.bohemiancoding.com/sketch -->
    <title>Small-Ember Logo 1c Black</title>
    <desc>Created with Sketch.</desc>
    <defs></defs>
    <g id="Page-1" stroke="none" stroke-width="1" fill="none" fill-rule="evenodd">
        <g id="Ember-Logos" transform="translate(-3280.000000, -2792.000000)" fill="#121212">
            <g id="Small-Ember-Logo-1c-Black" transform="translate(3280.138502, 2792.000000)">
                <path d="M94.2792549,25.4763815 C94.2792549,25.4763815 91.9461985,27.2863577 89.8925145,27.0842586 C87.8388305,26.8821594 88.4837645,22.2933198 88.4837645,22.2933198 C88.4837645,22.2933198 88.9265994,18.0849022 87.7169766,17.7312286 C86.5103257,17.3805272 85.0213305,18.8279138 85.0213305,18.8279138 C85.0213305,18.8279138 83.1697456,20.8815978 82.2840758,23.4999706 L82.040368,23.5802159 C82.040368,23.5802159 82.3227124,18.9884043 82.0017314,17.9422439 C81.7609956,17.4191638 79.5468211,17.4607724 79.1842314,18.3850788 C78.8216418,19.3123573 77.0503021,25.7527818 76.9284482,28.4513999 C76.9284482,28.4513999 73.4660142,31.3907538 70.4493871,31.8722253 C67.429788,32.3566688 66.7046087,30.4634753 66.7046087,30.4634753 C66.7046087,30.4634753 74.9163728,28.1690555 74.6340284,21.6067771 C74.3546561,15.0444987 68.0123091,17.4726606 67.296046,18.010601 C66.6005871,18.5336812 62.8944453,20.76866 61.8126204,26.9594326 C61.7769558,27.1674759 61.7115708,28.0888102 61.7115708,28.0888102 C61.7115708,28.0888102 58.5314812,30.2197675 56.7601416,30.7844563 C56.7601416,30.7844563 61.7115708,22.4508383 55.6753446,18.6674232 C53.9705183,17.6411992 52.4854154,18.5936357 51.6065187,19.4599122 C51.072734,19.9860322 58.9356795,11.3829376 57.1227312,3.69128159 C56.2608378,0.0297204637 54.4300572,-0.362589657 52.750851,0.231819617 C50.2008352,1.23637129 49.2349202,2.72536652 49.2349202,2.72536652 C49.2349202,2.72536652 45.9329766,7.51630527 45.1661887,14.6432725 C44.4023728,21.7672676 43.2759672,30.38323 43.2759672,30.38323 C43.2759672,30.38323 41.7037547,31.9138339 40.2563681,31.9940792 C38.8060094,32.0713524 39.4509435,27.6846119 39.4509435,27.6846119 C39.4509435,27.6846119 40.5773491,21.0034517 40.5000759,19.8740741 C40.4168586,18.7476685 40.3366133,18.1443431 39.0081086,17.7431168 C37.6796039,17.3389185 36.2292452,19.0300129 36.2292452,19.0300129 C36.2292452,19.0300129 32.4071936,24.8255033 32.0862126,25.7111731 L31.8811414,26.0767348 L31.6820143,25.833027 C31.6820143,25.833027 34.3776604,17.9422439 31.8038682,17.8233621 C29.227104,17.7015082 27.5360096,20.640862 27.5360096,20.640862 C27.5360096,20.640862 24.5966558,25.5536547 24.4748019,26.1153715 L24.2756747,25.8746357 C24.2756747,25.8746357 25.4823256,20.1593905 25.2415898,18.7476685 C24.997882,17.3389185 23.6723493,17.6212629 23.6723493,17.6212629 C23.6723493,17.6212629 21.981255,17.4191638 21.53842,18.5069327 C21.0955851,19.5947017 19.484736,26.7989421 19.2826368,29.0933619 C19.2826368,29.0933619 15.0563869,32.112961 12.2775236,32.1515976 C9.50163224,32.1932063 9.78397665,30.3921462 9.78397665,30.3921462 C9.78397665,30.3921462 19.9691796,26.9059358 17.1903162,20.0226764 C15.9420567,18.2513368 14.4946701,17.6955641 12.4409861,17.7342007 C10.3873021,17.7758093 7.84025832,19.0270409 6.19077259,22.7302106 C5.40020825,24.4956062 5.1148918,26.1748124 4.95142925,27.4409041 C4.95142925,27.4409041 3.17117348,27.8064658 2.20525841,27.0010413 C1.23637129,26.1956167 0.740039546,27.0010413 0.740039546,27.0010413 C0.740039546,27.0010413 -0.918362328,29.1171383 0.731123407,29.7591003 C2.38358119,30.4040344 4.95737334,30.704211 4.95737334,30.704211 C5.19513705,31.8306166 5.88167977,33.7475865 7.89375516,35.2722463 C10.9133543,37.5666661 16.7058726,35.061231 16.7058726,35.061231 L19.0805377,33.7297543 C19.0805377,33.7297543 19.1607829,35.9082642 20.893486,36.2262732 C22.623217,36.5442822 23.3483963,36.2203291 26.3679954,28.8942348 C28.139335,25.1494564 28.2611889,25.3515555 28.2611889,25.3515555 C28.460316,25.3099469 27.0931747,32.4755507 27.6162549,34.4073808 C28.139335,36.342183 30.4337548,36.1400839 30.4337548,36.1400839 C30.4337548,36.1400839 31.6820143,36.3808196 32.689538,32.8381403 C33.6940897,29.2954611 35.6288919,25.3901921 35.6288919,25.3901921 C35.8666556,25.3901921 35.0225944,32.7162864 36.3094905,35.0523149 C37.5993586,37.3883433 40.9399387,35.8369351 40.9399387,35.8369351 C40.9399387,35.8369351 43.2759672,34.6600048 43.6385568,34.2974151 C43.6385568,34.2974151 46.4085041,36.6572199 50.316745,36.2292452 C59.0545614,34.5084304 62.1633219,32.1842901 62.1633219,32.1842901 C62.1633219,32.1842901 63.6642053,35.9885095 68.3154579,36.342183 C73.6265047,36.7434093 76.527222,33.4028291 76.527222,33.4028291 C76.527222,33.4028291 76.4856133,35.575395 78.3371982,36.342183 C80.1917551,37.1059989 81.4370426,32.8054478 81.4370426,32.8054478 L84.5368869,24.2637866 C84.8192313,24.2637866 84.9797219,29.8185412 88.0409296,30.704211 C91.0991653,31.5898809 95.0846795,28.6297227 95.0846795,28.6297227 C95.0846795,28.6297227 96.0505946,28.0977264 95.8901041,26.4868772 C95.7266415,24.8760281 94.2792549,25.4763815 94.2792549,25.4763815 Z M13.6476369,21.4462866 C14.7324339,22.4924469 14.3312076,24.7452581 12.2775236,26.1540081 C10.2268116,27.5657301 9.29953309,27.2833857 9.29953309,27.2833857 C9.42138699,22.4924469 12.56284,20.3971542 13.6476369,21.4462866 Z M53.7019059,4.90090446 C54.3854765,8.52382899 47.7043163,19.3123573 47.7043163,19.3123573 C47.7845615,16.8960836 50.1592266,8.72592814 50.1592266,8.72592814 C50.1592266,8.72592814 53.0153631,1.27797994 53.7019059,4.90090446 Z M47.0980188,32.3953054 C47.0980188,32.3953054 46.5749387,30.6239658 48.0639339,25.6725365 C49.5559012,20.7211073 53.0569718,22.6529374 53.0569718,22.6529374 C53.0569718,22.6529374 55.4732455,24.5045223 53.580052,29.4559516 C51.6898305,34.4073808 47.0980188,32.3953054 47.0980188,32.3953054 Z M67.4684246,22.6945461 C69.1179104,19.674947 70.4077785,21.3244327 70.4077785,21.3244327 C70.4077785,21.3244327 71.8165285,22.8550366 70.2056793,25.1494564 C68.5948302,27.4438762 66.2617738,27.2833857 66.2617738,27.2833857 C66.2617738,27.2833857 65.8189389,25.7111731 67.4684246,22.6945461 Z" id="Fill-7"></path>
                <path d="M85.0617079,34.2581778 L85.0617079,33.3857326 L85.6150643,33.3857326 C85.6918072,33.3857326 85.76855,33.3938108 85.849332,33.401889 C85.930114,33.4140063 86.0068568,33.4342018 86.0714824,33.4624754 C86.1401471,33.4907491 86.1926554,33.5311401 86.2330463,33.5836484 C86.2774764,33.6361567 86.2976719,33.7088604 86.2976719,33.7977206 C86.2976719,33.9996755 86.2370854,34.1289267 86.1159125,34.1814349 C85.9947395,34.2339432 85.8372147,34.2581778 85.6473771,34.2581778 L85.0617079,34.2581778 Z M84.4033348,32.8727671 L84.4033348,36.1929058 L85.0617079,36.1929058 L85.0617079,34.7751824 L85.4736959,34.7751824 L86.2815155,36.1929058 L86.9722013,36.1929058 L86.0835997,34.7428696 C86.2047726,34.7307523 86.3178674,34.7065177 86.426923,34.6701658 C86.5319396,34.6338139 86.6248389,34.5813057 86.7015817,34.512641 C86.7823637,34.4439763 86.8429502,34.3551162 86.8873802,34.2460605 C86.9358494,34.1370049 86.9560449,34.0077537 86.9560449,33.854268 C86.9560449,33.4947882 86.8429502,33.240325 86.6207998,33.0949175 C86.3946103,32.9454709 86.0714824,32.8727671 85.6554553,32.8727671 L84.4033348,32.8727671 Z M83.3491302,34.5368756 C83.3491302,34.1975913 83.4056776,33.8865808 83.5228114,33.6038439 C83.6399453,33.321107 83.7974701,33.0787611 83.999425,32.8727671 C84.1973408,32.6667731 84.4356476,32.5052092 84.7062672,32.3880753 C84.9809259,32.2709415 85.271741,32.2143941 85.5827515,32.2143941 C85.889723,32.2143941 86.1805381,32.2709415 86.4511576,32.3880753 C86.7258163,32.5052092 86.960084,32.6667731 87.1620389,32.8727671 C87.3639938,33.0787611 87.5215187,33.321107 87.6426916,33.6038439 C87.7598255,33.8865808 87.8204119,34.1975913 87.8204119,34.5368756 C87.8204119,34.8761598 87.7598255,35.1871704 87.6426916,35.4739464 C87.5215187,35.7566832 87.3639938,36.0071073 87.1620389,36.2131013 C86.960084,36.4231344 86.7258163,36.5846984 86.4511576,36.7018322 C86.1805381,36.8189661 85.889723,36.8755134 85.5827515,36.8755134 C85.271741,36.8755134 84.9809259,36.8189661 84.7062672,36.7018322 C84.4356476,36.5846984 84.1973408,36.4231344 83.999425,36.2131013 C83.7974701,36.0071073 83.6399453,35.7566832 83.5228114,35.4739464 C83.4056776,35.1871704 83.3491302,34.8761598 83.3491302,34.5368756 Z M82.5372715,34.5368756 C82.5372715,34.9932937 82.6220925,35.4012426 82.7876956,35.7647614 C82.9573377,36.1323194 83.1794881,36.4433299 83.4581859,36.7018322 C83.7409227,36.9603345 84.0640506,37.1582503 84.4316085,37.2955797 C84.7991665,37.432909 85.1828808,37.5015737 85.5827515,37.5015737 C85.9866613,37.5015737 86.3703757,37.432909 86.7379336,37.2955797 C87.1054915,37.1582503 87.4286194,36.9603345 87.7113563,36.7018322 C87.9900541,36.4433299 88.2122045,36.1323194 88.3818466,35.7647614 C88.5474496,35.4012426 88.6282316,34.9932937 88.6282316,34.5368756 C88.6282316,34.0885357 88.5474496,33.6805868 88.3818466,33.3170679 C88.2122045,32.94951 87.9900541,32.6384994 87.7113563,32.3840362 C87.4286194,32.1255339 87.1054915,31.9276181 86.7379336,31.7902888 C86.3703757,31.6489204 85.9866613,31.5802557 85.5827515,31.5802557 C85.1828808,31.5802557 84.7991665,31.6489204 84.4316085,31.7902888 C84.0640506,31.9276181 83.7409227,32.1255339 83.4581859,32.3840362 C83.1794881,32.6384994 82.9573377,32.94951 82.7876956,33.3170679 C82.6220925,33.6805868 82.5372715,34.0885357 82.5372715,34.5368756 Z" id="Fill-11"></path>
            </g>
        </g>
    </g>
</svg>