<?xml version="1.0" encoding="utf-8"?>
<!-- Generator: Adobe Illustrator 21.1.0, SVG Export Plug-In . SVG Version: 6.00 Build 0)  -->
<svg version="1.1" id="Layer_1" xmlns="http://www.w3.org/2000/svg" xmlns:xlink="http://www.w3.org/1999/xlink" x="0px" y="0px"
	 viewBox="0 0 18.1 29.6" style="enable-background:new 0 0 18.1 29.6;" xml:space="preserve">
<g>
	<path d="M17.5,14.1c-0.4,2.7-1.8,6.2-4.2,10.6c-0.7,1.2-1.8,2-3.4,2.4c-1.4,0.3-2.8,0.7-4.2,1.1c-1,0.3-2.6,0.8-4.7,1.4
		c-0.5,0-0.8-0.2-0.9-0.5c0-0.4,0.4-0.8,1.1-1.2c2.2-1.3,4.4-2.6,6.5-3.8c2.4-1.5,4.4-3.1,6.1-4.7c0.5-0.7,0.7-1.6,0.5-2.7
		c-0.3-0.8-0.7-1.3-1.1-1.6c-0.6,0.1-1.1,0.2-1.6,0.2c-2,0-3.4-0.7-4.4-2c-0.4-0.6-0.6-1.3-0.6-2c0-0.8,0.2-1.7,0.7-2.9
		c0.5-0.9,0.9-1.8,1.2-2.7c0.4-1,0.7-2,1.1-3.1c0.6-1.2,1.4-2,2.4-2.4c1.8-0.3,3.3,0.4,4.4,2.2c1.2,2,1.8,4.4,1.8,7.2
		C18.1,10.9,17.9,12.5,17.5,14.1z"/>
</g>
</svg>
